# xmcd
#
# Track frame offsets:
#	150
#	30410
#	40995
#	67959
#	81335
#	93665
#	103856
#	117882
#	134489
#	146603
#	158789
#	172832
#	185117
#	199025
#	208534
#	226194
#	239953
#	252042
#
# Disc length: 3832 seconds
#
# Revision: 0
# Processed by: cddbd v1.5.2PL0 Copyright (c) Steve Scherf et al.
# Submitted via: EZCDAudioConverter 1.0.8.1
#
DISCID=fe0ef612
DTITLE=Mahalia Jackson - Mahalia Jackson's Gospel book
DYEAR=2012
DGENRE=
TTITLE0=Summertime - Sometimes I feel like a motherless child medley
TTITLE1=Nobody knows
TTITLE2=In the upper room
TTITLE3=Oh, my Lord
TTITLE4=Move on up a little higher
TTITLE5=Amazing Grace
TTITLE6=I have a friend
TTITLE7=There's not a friend like Jesus
TTITLE8=Just over the hill (part1)
TTITLE9=Just over the hill (part2)
TTITLE10=Go tell it on the mountain
TTITLE11=He's the one
TTITLE12=Jesus is with me
TTITLE13=Joshua fit the battle of Jericho
TTITLE14=When the saints go marching in
TTITLE15=Silent night, holy night
TTITLE16=Didnät it rain
TTITLE17=Come Sunday feat. Duke Ellington
EXTD=
EXTT0=
EXTT1=
EXTT2=
EXTT3=
EXTT4=
EXTT5=
EXTT6=
EXTT7=
EXTT8=
EXTT9=
EXTT10=
EXTT11=
EXTT12=
EXTT13=
EXTT14=
EXTT15=
EXTT16=
EXTT17=
PLAYORDER=
